<?xml version="1.0" encoding="iso-8859-1"?>
<!-- Generator: Adobe Illustrator 19.0.0, SVG Export Plug-In . SVG Version: 6.00 Build 0)  -->
<svg version="1.1" id="Layer_1" xmlns="http://www.w3.org/2000/svg" xmlns:xlink="http://www.w3.org/1999/xlink" x="0px" y="0px"
	 viewBox="0 0 512.001 512.001" style="enable-background:new 0 0 512.001 512.001;" xml:space="preserve">
<g>
	<g>
		<path d="M465.101,0h-50.613c-5.16,0-9.344,4.183-9.344,9.344c0,5.16,4.183,9.344,9.344,9.344h41.27v340.64h-332.52v-73.891
			c0-5.16-4.183-9.344-9.344-9.344c-5.16,0-9.344,4.183-9.344,9.344v74.011c-19.077,1.069-36.163,9.699-48.306,22.939V76.337
			c0-28.606,20.947-52.402,48.306-56.881v227.41c0,5.16,4.183,9.344,9.344,9.344c5.16,0,9.344-4.183,9.344-9.344V18.687h254.706
			c5.16,0,9.344-4.183,9.344-9.344c0-5.16-4.183-9.344-9.344-9.344H113.894C71.801,0,37.557,34.245,37.557,76.337v364.656
			c0,39.153,31.854,71.008,71.008,71.008h356.535c5.16,0,9.344-4.183,9.344-9.344V368.67V9.343C474.444,4.183,470.261,0,465.101,0z
			 M56.283,442.542c-0.015-0.516-0.04-1.03-0.04-1.55v-10.658c0.001-28.849,23.471-52.32,52.321-52.32h304.897v66.583H71.594
			C66.37,444.597,61.24,443.904,56.283,442.542z M108.564,493.313c-21.172,0-39.435-12.65-47.662-30.781
			c3.523,0.493,7.091,0.752,10.691,0.752h351.21c5.16,0,9.344-4.183,9.344-9.344v-75.927h23.608v115.299H108.564z"/>
	</g>
</g>
<g>
	<g>
		<path d="M387.243,111.993h-48.261V62.126c0-5.16-4.183-9.344-9.344-9.344h-77.144c-5.16,0-9.344,4.183-9.344,9.344v49.866h-48.26
			c-5.16,0-9.344,4.183-9.344,9.344v77.144c0,5.16,4.183,9.344,9.344,9.344h48.26v104.005c0,5.16,4.183,9.344,9.344,9.344h77.144
			c5.16,0,9.344-4.183,9.344-9.344v-48.781c0-5.16-4.183-9.344-9.344-9.344c-5.16,0-9.344,4.183-9.344,9.344v39.437h-58.457V198.479
			c0-5.16-4.183-9.344-9.344-9.344h-48.26v-58.457h48.26c5.16,0,9.344-4.183,9.344-9.344V71.469h58.457v49.866
			c0,5.16,4.183,9.344,9.344,9.344h48.261v58.457h-48.261c-5.16,0-9.344,4.183-9.344,9.344v33.422c0,5.16,4.183,9.344,9.344,9.344
			c5.16,0,9.344-4.183,9.344-9.344v-24.079h48.261c5.16,0,9.344-4.183,9.344-9.344v-77.143
			C396.586,116.176,392.403,111.993,387.243,111.993z"/>
	</g>
</g>
<g>
</g>
<g>
</g>
<g>
</g>
<g>
</g>
<g>
</g>
<g>
</g>
<g>
</g>
<g>
</g>
<g>
</g>
<g>
</g>
<g>
</g>
<g>
</g>
<g>
</g>
<g>
</g>
<g>
</g>
</svg>
