<?xml version="1.0" encoding="iso-8859-1"?>
<!-- Generator: Adobe Illustrator 19.0.0, SVG Export Plug-In . SVG Version: 6.00 Build 0)  -->
<svg version="1.1" id="Layer_1" xmlns="http://www.w3.org/2000/svg" xmlns:xlink="http://www.w3.org/1999/xlink" x="0px" y="0px"
	 viewBox="0 0 512.001 512.001" style="enable-background:new 0 0 512.001 512.001;" xml:space="preserve">
<path style="fill:#FC675B;" d="M464.988,368.672V9.345H113.782c-36.999,0-66.993,29.994-66.993,66.993l0,0v359.327"/>
<path style="fill:#E8AF3D;" d="M464.988,368.672H108.453c-34.057,0-61.663,27.608-61.663,61.663v10.658
	c0,34.057,27.608,61.664,61.663,61.664h356.535V368.672z"/>
<path style="fill:#F2F2F2;" d="M422.693,368.68v85.263H71.477c-8.148,0-15.946-1.445-23.172-4.111l-0.872,0.125
	c-0.424-2.915-0.648-5.918-0.648-8.957v-10.664c0-34.06,27.607-61.667,61.667-61.667h314.241V368.68z"/>
<path style="fill:#CCCCCC;" d="M422.693,368.668v30.734H108.452c-30.248,0-55.401,21.777-60.658,50.505l-0.361,0.05
	c-0.424-2.915-0.648-5.918-0.648-8.957v-10.664c0-34.06,27.607-61.667,61.667-61.667L422.693,368.668L422.693,368.668z"/>
<polygon style="fill:#FCC447;" points="387.131,121.337 329.527,121.337 329.527,62.128 252.383,62.128 252.383,121.337 
	194.779,121.337 194.779,198.481 252.383,198.481 252.383,311.829 329.527,311.829 329.527,198.481 387.131,198.481 "/>
<path d="M465.101,0h-50.613c-5.16,0-9.344,4.183-9.344,9.344s4.183,9.344,9.344,9.344h41.27v340.64h-332.52v-73.891
	c0-5.16-4.183-9.344-9.344-9.344c-5.16,0-9.344,4.183-9.344,9.344v74.011c-19.077,1.069-36.163,9.699-48.306,22.939V76.337
	c0-28.606,20.947-52.402,48.306-56.881v227.41c0,5.16,4.183,9.344,9.344,9.344c5.16,0,9.344-4.183,9.344-9.344V18.687h254.706
	c5.16,0,9.344-4.183,9.344-9.344S383.103,0,377.943,0H113.894C71.801,0,37.557,34.245,37.557,76.337v364.656
	c0,39.153,31.854,71.008,71.008,71.008H465.1c5.16,0,9.344-4.183,9.344-9.344V368.67V9.344C474.444,4.183,470.261,0,465.101,0z
	 M108.564,378.014h304.896v66.583H71.594c-5.224,0-10.354-0.693-15.311-2.056c-0.015-0.516-0.04-1.03-0.04-1.55v-10.658
	C56.244,401.485,79.714,378.014,108.564,378.014z M455.757,493.313H108.564c-21.172,0-39.435-12.65-47.662-30.781
	c3.523,0.493,7.091,0.752,10.691,0.752h351.21c5.16,0,9.344-4.183,9.344-9.344v-75.927h23.608v115.299H455.757z"/>
<path d="M338.982,111.993V62.126c0-5.16-4.183-9.344-9.344-9.344h-77.144c-5.16,0-9.344,4.183-9.344,9.344v49.866h-48.26
	c-5.16,0-9.344,4.183-9.344,9.344v77.144c0,5.16,4.183,9.344,9.344,9.344h48.26v104.005c0,5.16,4.183,9.344,9.344,9.344h77.144
	c5.16,0,9.344-4.183,9.344-9.344v-48.781c0-5.16-4.183-9.344-9.344-9.344s-9.344,4.183-9.344,9.344v39.437h-58.457V198.479
	c0-5.16-4.183-9.344-9.344-9.344h-48.26v-58.457h48.26c5.16,0,9.344-4.183,9.344-9.344V71.469h58.457v49.866
	c0,5.16,4.183,9.344,9.344,9.344h48.261v58.457h-48.261c-5.16,0-9.344,4.183-9.344,9.344v33.422c0,5.16,4.183,9.344,9.344,9.344
	s9.344-4.183,9.344-9.344v-24.079h48.261c5.16,0,9.344-4.183,9.344-9.344v-77.143c0-5.16-4.183-9.344-9.344-9.344H338.982z"/>
<g>
</g>
<g>
</g>
<g>
</g>
<g>
</g>
<g>
</g>
<g>
</g>
<g>
</g>
<g>
</g>
<g>
</g>
<g>
</g>
<g>
</g>
<g>
</g>
<g>
</g>
<g>
</g>
<g>
</g>
</svg>
